<svg xmlns="http://www.w3.org/2000/svg" width="92" height="66" viewBox="0 0 92 66" fill="none">
  <g filter="url(#filter0_d_32_747)">
    <path d="M47.6717 58.4648V51.2098C62.532 54.7606 71.305 54.3888 87.3639 51.2065V58.4538C87.3639 58.7942 87.1212 59.0905 86.7874 59.1616C71.35 62.4488 62.7174 62.4998 48.2355 59.1696C47.9075 59.0942 47.6717 58.8006 47.6717 58.4648Z" fill="url(#paint0_linear_32_747)" stroke="url(#paint1_linear_32_747)" stroke-width="0.131615"/>
    <g filter="url(#filter1_d_32_747)">
      <ellipse cx="67.5178" cy="50.9359" rx="19.9119" ry="3.63609" fill="url(#paint2_linear_32_747)"/>
      <path d="M87.3639 50.9359C87.3639 51.1607 87.2394 51.3894 86.9813 51.6196C86.7235 51.8497 86.3395 52.0747 85.8388 52.2909C84.8379 52.723 83.3855 53.1137 81.5858 53.4423C77.9874 54.0994 73.0136 54.5062 67.5178 54.5062C62.022 54.5062 57.0481 54.0994 53.4497 53.4423C51.65 53.1137 50.1976 52.723 49.1967 52.2909C48.696 52.0747 48.312 51.8497 48.0542 51.6196C47.7962 51.3894 47.6717 51.1607 47.6717 50.9359C47.6717 50.7112 47.7962 50.4825 48.0542 50.2522C48.312 50.0222 48.696 49.7972 49.1967 49.581C50.1976 49.1489 51.65 48.7582 53.4497 48.4296C57.0481 47.7725 62.022 47.3657 67.5178 47.3657C73.0136 47.3657 77.9874 47.7725 81.5858 48.4296C83.3855 48.7582 84.8379 49.1489 85.8388 49.581C86.3395 49.7972 86.7235 50.0222 86.9813 50.2522C87.2394 50.4825 87.3639 50.7112 87.3639 50.9359Z" stroke="white" stroke-opacity="0.2" stroke-width="0.131615"/>
    </g>
  </g>
  <g filter="url(#filter2_d_32_747)">
    <path d="M2.63615 58.4648V51.2098C17.4965 54.7606 26.2695 54.3888 42.3283 51.2065V58.4538C42.3283 58.7942 42.0857 59.0905 41.7519 59.1616C26.3145 62.4488 17.6819 62.4998 3.20001 59.1696C2.87202 59.0942 2.63615 58.8006 2.63615 58.4648Z" fill="url(#paint3_linear_32_747)" stroke="url(#paint4_linear_32_747)" stroke-width="0.131615"/>
    <g filter="url(#filter3_d_32_747)">
      <ellipse cx="22.4822" cy="50.9359" rx="19.9119" ry="3.63609" fill="url(#paint5_linear_32_747)"/>
      <path d="M42.3283 50.9359C42.3283 51.1607 42.2038 51.3894 41.9458 51.6196C41.688 51.8497 41.304 52.0747 40.8033 52.2909C39.8024 52.723 38.35 53.1137 36.5502 53.4423C32.9519 54.0994 27.978 54.5062 22.4822 54.5062C16.9864 54.5062 12.0126 54.0994 8.4142 53.4423C6.61446 53.1137 5.16208 52.723 4.16117 52.2909C3.66047 52.0747 3.27646 51.8497 3.01867 51.6196C2.76062 51.3894 2.63612 51.1607 2.63612 50.9359C2.63612 50.7112 2.76062 50.4825 3.01867 50.2522C3.27646 50.0222 3.66047 49.7972 4.16117 49.581C5.16208 49.1489 6.61446 48.7582 8.4142 48.4296C12.0126 47.7725 16.9864 47.3657 22.4822 47.3657C27.978 47.3657 32.9519 47.7725 36.5502 48.4296C38.35 48.7582 39.8024 49.1489 40.8033 49.581C41.304 49.7972 41.688 50.0222 41.9458 50.2522C42.2038 50.4825 42.3283 50.7112 42.3283 50.9359Z" stroke="white" stroke-opacity="0.2" stroke-width="0.131615"/>
    </g>
  </g>
  <g filter="url(#filter4_d_32_747)">
    <path d="M47.6717 46.9505V39.6955C62.532 43.2464 71.305 42.8746 87.3639 39.6922V46.9395C87.3639 47.2799 87.1212 47.5762 86.7874 47.6473C71.35 50.9345 62.7174 50.9855 48.2355 47.6553C47.9075 47.5799 47.6717 47.2864 47.6717 46.9505Z" fill="url(#paint6_linear_32_747)" stroke="url(#paint7_linear_32_747)" stroke-width="0.131615"/>
    <g filter="url(#filter5_d_32_747)">
      <ellipse cx="67.5178" cy="39.4217" rx="19.9119" ry="3.63609" fill="url(#paint8_linear_32_747)"/>
      <path d="M87.3639 39.4217C87.3639 39.6464 87.2394 39.8751 86.9813 40.1054C86.7235 40.3354 86.3395 40.5604 85.8388 40.7766C84.8379 41.2087 83.3855 41.5994 81.5858 41.928C77.9874 42.5851 73.0136 42.9919 67.5178 42.9919C62.022 42.9919 57.0481 42.5851 53.4497 41.928C51.65 41.5994 50.1976 41.2087 49.1967 40.7766C48.696 40.5604 48.312 40.3354 48.0542 40.1054C47.7962 39.8751 47.6717 39.6464 47.6717 39.4217C47.6717 39.1969 47.7962 38.9682 48.0542 38.738C48.312 38.5079 48.696 38.2829 49.1967 38.0668C50.1976 37.6346 51.65 37.244 53.4497 36.9153C57.0481 36.2582 62.022 35.8514 67.5178 35.8514C73.0136 35.8514 77.9874 36.2582 81.5858 36.9153C83.3855 37.244 84.8379 37.6346 85.8388 38.0668C86.3395 38.2829 86.7235 38.5079 86.9813 38.738C87.2394 38.9682 87.3639 39.1969 87.3639 39.4217Z" stroke="white" stroke-opacity="0.2" stroke-width="0.131615"/>
    </g>
  </g>
  <g filter="url(#filter6_d_32_747)">
    <path d="M2.63615 46.9505V39.6955C17.4965 43.2464 26.2695 42.8746 42.3283 39.6922V46.9395C42.3283 47.2799 42.0857 47.5762 41.7519 47.6473C26.3145 50.9345 17.6819 50.9855 3.20001 47.6553C2.87202 47.5799 2.63615 47.2864 2.63615 46.9505Z" fill="#925FE2" stroke="url(#paint9_linear_32_747)" stroke-width="0.131615"/>
    <g filter="url(#filter7_d_32_747)">
      <ellipse cx="22.4822" cy="39.4217" rx="19.9119" ry="3.63609" fill="#925FE2"/>
      <path d="M42.3283 39.4217C42.3283 39.6464 42.2038 39.8751 41.9458 40.1054C41.688 40.3354 41.304 40.5604 40.8033 40.7766C39.8024 41.2087 38.35 41.5994 36.5502 41.928C32.9519 42.5851 27.978 42.9919 22.4822 42.9919C16.9864 42.9919 12.0126 42.5851 8.4142 41.928C6.61446 41.5994 5.16208 41.2087 4.16117 40.7766C3.66047 40.5604 3.27646 40.3354 3.01867 40.1054C2.76062 39.8751 2.63612 39.6464 2.63612 39.4217C2.63612 39.1969 2.76062 38.9682 3.01867 38.738C3.27646 38.5079 3.66047 38.2829 4.16117 38.0668C5.16208 37.6346 6.61446 37.244 8.4142 36.9153C12.0126 36.2582 16.9864 35.8514 22.4822 35.8514C27.978 35.8514 32.9519 36.2582 36.5502 36.9153C38.35 37.244 39.8024 37.6346 40.8033 38.0668C41.304 38.2829 41.688 38.5079 41.9458 38.738C42.2038 38.9682 42.3283 39.1969 42.3283 39.4217Z" stroke="#E2D4F7" stroke-width="0.131615"/>
    </g>
    <g filter="url(#filter8_f_32_747)">
      <ellipse cx="22.7679" cy="39.5688" rx="10.6918" ry="0.822448" fill="#E2D4F7"/>
    </g>
  </g>
  <g filter="url(#filter9_d_32_747)">
    <path d="M47.6543 35.471V28.216C62.5147 31.7668 71.2877 31.3951 87.3465 28.2127V35.46C87.3465 35.8004 87.1039 36.0967 86.7701 36.1678C71.3326 39.455 62.7001 39.506 48.2182 36.1758C47.8902 36.1004 47.6543 35.8069 47.6543 35.471Z" fill="url(#paint10_linear_32_747)" stroke="url(#paint11_linear_32_747)" stroke-width="0.131615"/>
    <g filter="url(#filter10_d_32_747)">
      <ellipse cx="67.5004" cy="27.9421" rx="19.9119" ry="3.63609" fill="url(#paint12_linear_32_747)"/>
      <path d="M87.3465 27.9421C87.3465 28.1668 87.222 28.3955 86.964 28.6258C86.7062 28.8558 86.3222 29.0808 85.8215 29.297C84.8206 29.7291 83.3682 30.1198 81.5685 30.4484C77.9701 31.1055 72.9962 31.5123 67.5004 31.5123C62.0046 31.5123 57.0308 31.1055 53.4324 30.4484C51.6327 30.1198 50.1803 29.7291 49.1794 29.297C48.6787 29.0808 48.2947 28.8558 48.0369 28.6258C47.7788 28.3955 47.6543 28.1668 47.6543 27.9421C47.6543 27.7173 47.7788 27.4886 48.0369 27.2584C48.2947 27.0283 48.6787 26.8033 49.1794 26.5871C50.1803 26.155 51.6327 25.7643 53.4324 25.4357C57.0308 24.7786 62.0046 24.3718 67.5004 24.3718C72.9962 24.3718 77.9701 24.7786 81.5685 25.4357C83.3682 25.7643 84.8206 26.155 85.8215 26.5871C86.3222 26.8033 86.7062 27.0283 86.964 27.2584C87.222 27.4886 87.3465 27.7173 87.3465 27.9421Z" stroke="white" stroke-opacity="0.2" stroke-width="0.131615"/>
    </g>
  </g>
  <g filter="url(#filter11_d_32_747)">
    <path d="M47.6543 24.0259V16.7709C62.5147 20.3218 71.2877 19.95 87.3465 16.7676V24.0149C87.3465 24.3553 87.1039 24.6516 86.7701 24.7227C71.3326 28.0099 62.7001 28.0609 48.2182 24.7307C47.8902 24.6553 47.6543 24.3618 47.6543 24.0259Z" fill="url(#paint13_linear_32_747)" stroke="url(#paint14_linear_32_747)" stroke-width="0.131615"/>
    <g filter="url(#filter12_d_32_747)">
      <ellipse cx="67.5004" cy="16.497" rx="19.9119" ry="3.63609" fill="url(#paint15_linear_32_747)"/>
      <path d="M87.3465 16.497C87.3465 16.7218 87.222 16.9505 86.964 17.1807C86.7062 17.4108 86.3222 17.6358 85.8215 17.852C84.8206 18.2841 83.3682 18.6748 81.5685 19.0034C77.9701 19.6605 72.9962 20.0673 67.5004 20.0673C62.0046 20.0673 57.0308 19.6605 53.4324 19.0034C51.6327 18.6748 50.1803 18.2841 49.1794 17.852C48.6787 17.6358 48.2947 17.4108 48.0369 17.1807C47.7788 16.9505 47.6543 16.7218 47.6543 16.497C47.6543 16.2723 47.7788 16.0436 48.0369 15.8133C48.2947 15.5833 48.6787 15.3583 49.1794 15.1421C50.1803 14.71 51.6327 14.3193 53.4324 13.9907C57.0308 13.3336 62.0046 12.9268 67.5004 12.9268C72.9962 12.9268 77.9701 13.3336 81.5685 13.9907C83.3682 14.3193 84.8206 14.71 85.8215 15.1421C86.3222 15.3583 86.7062 15.5833 86.964 15.8133C87.222 16.0436 87.3465 16.2723 87.3465 16.497Z" stroke="white" stroke-opacity="0.2" stroke-width="0.131615"/>
    </g>
  </g>
  <g filter="url(#filter13_d_32_747)">
    <path d="M42.0658 13.452V6.19694C56.9262 9.7478 65.6992 9.37602 81.758 6.19367V13.441C81.758 13.7814 81.5154 14.0777 81.1816 14.1487C65.7441 17.436 57.1116 17.4869 42.6297 14.1568C42.3017 14.0813 42.0658 13.7878 42.0658 13.452Z" fill="url(#paint16_linear_32_747)" stroke="url(#paint17_linear_32_747)" stroke-width="0.131615"/>
    <g filter="url(#filter14_d_32_747)">
      <ellipse cx="61.9119" cy="5.92307" rx="19.9119" ry="3.63609" fill="url(#paint18_linear_32_747)"/>
      <path d="M81.758 5.92307C81.758 6.14784 81.6335 6.3765 81.3755 6.60677C81.1177 6.83683 80.7337 7.06181 80.233 7.27799C79.2321 7.71011 77.7797 8.10079 75.98 8.42944C72.3816 9.08653 67.4077 9.49335 61.9119 9.49335C56.4161 9.49335 51.4423 9.08653 47.8439 8.42944C46.0442 8.10079 44.5918 7.71011 43.5909 7.27799C43.0902 7.06181 42.7062 6.83683 42.4484 6.60677C42.1903 6.3765 42.0658 6.14784 42.0658 5.92307C42.0658 5.69831 42.1903 5.46965 42.4484 5.23938C42.7062 5.00932 43.0902 4.78433 43.5909 4.56816C44.5918 4.13604 46.0442 3.74536 47.8439 3.41671C51.4423 2.75961 56.4161 2.35279 61.9119 2.35279C67.4077 2.35279 72.3816 2.75961 75.98 3.41671C77.7797 3.74536 79.2321 4.13604 80.233 4.56816C80.7337 4.78433 81.1177 5.00932 81.3755 5.23938C81.6335 5.46965 81.758 5.69831 81.758 5.92307Z" stroke="white" stroke-opacity="0.2" stroke-width="0.131615"/>
    </g>
  </g>
  <defs>
    <filter id="filter0_d_32_747" x="46.5529" y="46.5102" width="44.5619" height="19.1512" filterUnits="userSpaceOnUse" color-interpolation-filters="sRGB">
      <feFlood flood-opacity="0" result="BackgroundImageFix"/>
      <feColorMatrix in="SourceAlpha" type="matrix" values="0 0 0 0 0 0 0 0 0 0 0 0 0 0 0 0 0 0 127 0" result="hardAlpha"/>
      <feOffset dx="1.31615" dy="1.57937"/>
      <feGaussianBlur stdDeviation="1.18453"/>
      <feComposite in2="hardAlpha" operator="out"/>
      <feColorMatrix type="matrix" values="0 0 0 0 0.228976 0 0 0 0 0.34229 0 0 0 0 0.504167 0 0 0 0.15 0"/>
      <feBlend mode="normal" in2="BackgroundImageFix" result="effect1_dropShadow_32_747"/>
      <feBlend mode="normal" in="SourceGraphic" in2="effect1_dropShadow_32_747" result="shape"/>
    </filter>
    <filter id="filter1_d_32_747" x="45.5" y="45.9837" width="44.0355" height="11.4838" filterUnits="userSpaceOnUse" color-interpolation-filters="sRGB">
      <feFlood flood-opacity="0" result="BackgroundImageFix"/>
      <feColorMatrix in="SourceAlpha" type="matrix" values="0 0 0 0 0 0 0 0 0 0 0 0 0 0 0 0 0 0 127 0" result="hardAlpha"/>
      <feOffset dy="0.789687"/>
      <feGaussianBlur stdDeviation="1.05292"/>
      <feComposite in2="hardAlpha" operator="out"/>
      <feColorMatrix type="matrix" values="0 0 0 0 0.6825 0 0 0 0 0.782885 0 0 0 0 0.9 0 0 0 0.5 0"/>
      <feBlend mode="normal" in2="BackgroundImageFix" result="effect1_dropShadow_32_747"/>
      <feBlend mode="normal" in="SourceGraphic" in2="effect1_dropShadow_32_747" result="shape"/>
    </filter>
    <filter id="filter2_d_32_747" x="1.5174" y="46.5102" width="44.562" height="19.1512" filterUnits="userSpaceOnUse" color-interpolation-filters="sRGB">
      <feFlood flood-opacity="0" result="BackgroundImageFix"/>
      <feColorMatrix in="SourceAlpha" type="matrix" values="0 0 0 0 0 0 0 0 0 0 0 0 0 0 0 0 0 0 127 0" result="hardAlpha"/>
      <feOffset dx="1.31615" dy="1.57937"/>
      <feGaussianBlur stdDeviation="1.18453"/>
      <feComposite in2="hardAlpha" operator="out"/>
      <feColorMatrix type="matrix" values="0 0 0 0 0.228976 0 0 0 0 0.34229 0 0 0 0 0.504167 0 0 0 0.15 0"/>
      <feBlend mode="normal" in2="BackgroundImageFix" result="effect1_dropShadow_32_747"/>
      <feBlend mode="normal" in="SourceGraphic" in2="effect1_dropShadow_32_747" result="shape"/>
    </filter>
    <filter id="filter3_d_32_747" x="0.46448" y="45.9837" width="44.0355" height="11.4838" filterUnits="userSpaceOnUse" color-interpolation-filters="sRGB">
      <feFlood flood-opacity="0" result="BackgroundImageFix"/>
      <feColorMatrix in="SourceAlpha" type="matrix" values="0 0 0 0 0 0 0 0 0 0 0 0 0 0 0 0 0 0 127 0" result="hardAlpha"/>
      <feOffset dy="0.789687"/>
      <feGaussianBlur stdDeviation="1.05292"/>
      <feComposite in2="hardAlpha" operator="out"/>
      <feColorMatrix type="matrix" values="0 0 0 0 0.6825 0 0 0 0 0.782885 0 0 0 0 0.9 0 0 0 0.5 0"/>
      <feBlend mode="normal" in2="BackgroundImageFix" result="effect1_dropShadow_32_747"/>
      <feBlend mode="normal" in="SourceGraphic" in2="effect1_dropShadow_32_747" result="shape"/>
    </filter>
    <filter id="filter4_d_32_747" x="46.5529" y="34.9959" width="44.5619" height="19.1512" filterUnits="userSpaceOnUse" color-interpolation-filters="sRGB">
      <feFlood flood-opacity="0" result="BackgroundImageFix"/>
      <feColorMatrix in="SourceAlpha" type="matrix" values="0 0 0 0 0 0 0 0 0 0 0 0 0 0 0 0 0 0 127 0" result="hardAlpha"/>
      <feOffset dx="1.31615" dy="1.57937"/>
      <feGaussianBlur stdDeviation="1.18453"/>
      <feComposite in2="hardAlpha" operator="out"/>
      <feColorMatrix type="matrix" values="0 0 0 0 0.228976 0 0 0 0 0.34229 0 0 0 0 0.504167 0 0 0 0.15 0"/>
      <feBlend mode="normal" in2="BackgroundImageFix" result="effect1_dropShadow_32_747"/>
      <feBlend mode="normal" in="SourceGraphic" in2="effect1_dropShadow_32_747" result="shape"/>
    </filter>
    <filter id="filter5_d_32_747" x="45.5" y="34.4694" width="44.0355" height="11.4838" filterUnits="userSpaceOnUse" color-interpolation-filters="sRGB">
      <feFlood flood-opacity="0" result="BackgroundImageFix"/>
      <feColorMatrix in="SourceAlpha" type="matrix" values="0 0 0 0 0 0 0 0 0 0 0 0 0 0 0 0 0 0 127 0" result="hardAlpha"/>
      <feOffset dy="0.789687"/>
      <feGaussianBlur stdDeviation="1.05292"/>
      <feComposite in2="hardAlpha" operator="out"/>
      <feColorMatrix type="matrix" values="0 0 0 0 0.6825 0 0 0 0 0.782885 0 0 0 0 0.9 0 0 0 0.5 0"/>
      <feBlend mode="normal" in2="BackgroundImageFix" result="effect1_dropShadow_32_747"/>
      <feBlend mode="normal" in="SourceGraphic" in2="effect1_dropShadow_32_747" result="shape"/>
    </filter>
    <filter id="filter6_d_32_747" x="1.5174" y="34.9959" width="44.562" height="19.1512" filterUnits="userSpaceOnUse" color-interpolation-filters="sRGB">
      <feFlood flood-opacity="0" result="BackgroundImageFix"/>
      <feColorMatrix in="SourceAlpha" type="matrix" values="0 0 0 0 0 0 0 0 0 0 0 0 0 0 0 0 0 0 127 0" result="hardAlpha"/>
      <feOffset dx="1.31615" dy="1.57937"/>
      <feGaussianBlur stdDeviation="1.18453"/>
      <feComposite in2="hardAlpha" operator="out"/>
      <feColorMatrix type="matrix" values="0 0 0 0 0.228976 0 0 0 0 0.34229 0 0 0 0 0.504167 0 0 0 0.15 0"/>
      <feBlend mode="normal" in2="BackgroundImageFix" result="effect1_dropShadow_32_747"/>
      <feBlend mode="normal" in="SourceGraphic" in2="effect1_dropShadow_32_747" result="shape"/>
    </filter>
    <filter id="filter7_d_32_747" x="0.46448" y="34.4694" width="44.0355" height="11.4838" filterUnits="userSpaceOnUse" color-interpolation-filters="sRGB">
      <feFlood flood-opacity="0" result="BackgroundImageFix"/>
      <feColorMatrix in="SourceAlpha" type="matrix" values="0 0 0 0 0 0 0 0 0 0 0 0 0 0 0 0 0 0 127 0" result="hardAlpha"/>
      <feOffset dy="0.789687"/>
      <feGaussianBlur stdDeviation="1.05292"/>
      <feComposite in2="hardAlpha" operator="out"/>
      <feColorMatrix type="matrix" values="0 0 0 0 0.6825 0 0 0 0 0.782885 0 0 0 0 0.9 0 0 0 0.5 0"/>
      <feBlend mode="normal" in2="BackgroundImageFix" result="effect1_dropShadow_32_747"/>
      <feBlend mode="normal" in="SourceGraphic" in2="effect1_dropShadow_32_747" result="shape"/>
    </filter>
    <filter id="filter8_f_32_747" x="6.81153" y="33.4818" width="31.9128" height="12.1741" filterUnits="userSpaceOnUse" color-interpolation-filters="sRGB">
      <feFlood flood-opacity="0" result="BackgroundImageFix"/>
      <feBlend mode="normal" in="SourceGraphic" in2="BackgroundImageFix" result="shape"/>
      <feGaussianBlur stdDeviation="2.63229" result="effect1_foregroundBlur_32_747"/>
    </filter>
    <filter id="filter9_d_32_747" x="46.5356" y="23.5163" width="44.5619" height="19.1513" filterUnits="userSpaceOnUse" color-interpolation-filters="sRGB">
      <feFlood flood-opacity="0" result="BackgroundImageFix"/>
      <feColorMatrix in="SourceAlpha" type="matrix" values="0 0 0 0 0 0 0 0 0 0 0 0 0 0 0 0 0 0 127 0" result="hardAlpha"/>
      <feOffset dx="1.31615" dy="1.57937"/>
      <feGaussianBlur stdDeviation="1.18453"/>
      <feComposite in2="hardAlpha" operator="out"/>
      <feColorMatrix type="matrix" values="0 0 0 0 0.228976 0 0 0 0 0.34229 0 0 0 0 0.504167 0 0 0 0.15 0"/>
      <feBlend mode="normal" in2="BackgroundImageFix" result="effect1_dropShadow_32_747"/>
      <feBlend mode="normal" in="SourceGraphic" in2="effect1_dropShadow_32_747" result="shape"/>
    </filter>
    <filter id="filter10_d_32_747" x="45.4827" y="22.9898" width="44.0355" height="11.4838" filterUnits="userSpaceOnUse" color-interpolation-filters="sRGB">
      <feFlood flood-opacity="0" result="BackgroundImageFix"/>
      <feColorMatrix in="SourceAlpha" type="matrix" values="0 0 0 0 0 0 0 0 0 0 0 0 0 0 0 0 0 0 127 0" result="hardAlpha"/>
      <feOffset dy="0.789687"/>
      <feGaussianBlur stdDeviation="1.05292"/>
      <feComposite in2="hardAlpha" operator="out"/>
      <feColorMatrix type="matrix" values="0 0 0 0 0.6825 0 0 0 0 0.782885 0 0 0 0 0.9 0 0 0 0.5 0"/>
      <feBlend mode="normal" in2="BackgroundImageFix" result="effect1_dropShadow_32_747"/>
      <feBlend mode="normal" in="SourceGraphic" in2="effect1_dropShadow_32_747" result="shape"/>
    </filter>
    <filter id="filter11_d_32_747" x="46.5356" y="12.0713" width="44.5619" height="19.1513" filterUnits="userSpaceOnUse" color-interpolation-filters="sRGB">
      <feFlood flood-opacity="0" result="BackgroundImageFix"/>
      <feColorMatrix in="SourceAlpha" type="matrix" values="0 0 0 0 0 0 0 0 0 0 0 0 0 0 0 0 0 0 127 0" result="hardAlpha"/>
      <feOffset dx="1.31615" dy="1.57937"/>
      <feGaussianBlur stdDeviation="1.18453"/>
      <feComposite in2="hardAlpha" operator="out"/>
      <feColorMatrix type="matrix" values="0 0 0 0 0.228976 0 0 0 0 0.34229 0 0 0 0 0.504167 0 0 0 0.15 0"/>
      <feBlend mode="normal" in2="BackgroundImageFix" result="effect1_dropShadow_32_747"/>
      <feBlend mode="normal" in="SourceGraphic" in2="effect1_dropShadow_32_747" result="shape"/>
    </filter>
    <filter id="filter12_d_32_747" x="45.4827" y="11.5448" width="44.0355" height="11.4838" filterUnits="userSpaceOnUse" color-interpolation-filters="sRGB">
      <feFlood flood-opacity="0" result="BackgroundImageFix"/>
      <feColorMatrix in="SourceAlpha" type="matrix" values="0 0 0 0 0 0 0 0 0 0 0 0 0 0 0 0 0 0 127 0" result="hardAlpha"/>
      <feOffset dy="0.789687"/>
      <feGaussianBlur stdDeviation="1.05292"/>
      <feComposite in2="hardAlpha" operator="out"/>
      <feColorMatrix type="matrix" values="0 0 0 0 0.6825 0 0 0 0 0.782885 0 0 0 0 0.9 0 0 0 0.5 0"/>
      <feBlend mode="normal" in2="BackgroundImageFix" result="effect1_dropShadow_32_747"/>
      <feBlend mode="normal" in="SourceGraphic" in2="effect1_dropShadow_32_747" result="shape"/>
    </filter>
    <filter id="filter13_d_32_747" x="40.9471" y="1.4973" width="44.5619" height="19.1513" filterUnits="userSpaceOnUse" color-interpolation-filters="sRGB">
      <feFlood flood-opacity="0" result="BackgroundImageFix"/>
      <feColorMatrix in="SourceAlpha" type="matrix" values="0 0 0 0 0 0 0 0 0 0 0 0 0 0 0 0 0 0 127 0" result="hardAlpha"/>
      <feOffset dx="1.31615" dy="1.57937"/>
      <feGaussianBlur stdDeviation="1.18453"/>
      <feComposite in2="hardAlpha" operator="out"/>
      <feColorMatrix type="matrix" values="0 0 0 0 0.228976 0 0 0 0 0.34229 0 0 0 0 0.504167 0 0 0 0.15 0"/>
      <feBlend mode="normal" in2="BackgroundImageFix" result="effect1_dropShadow_32_747"/>
      <feBlend mode="normal" in="SourceGraphic" in2="effect1_dropShadow_32_747" result="shape"/>
    </filter>
    <filter id="filter14_d_32_747" x="39.8942" y="0.970842" width="44.0355" height="11.4838" filterUnits="userSpaceOnUse" color-interpolation-filters="sRGB">
      <feFlood flood-opacity="0" result="BackgroundImageFix"/>
      <feColorMatrix in="SourceAlpha" type="matrix" values="0 0 0 0 0 0 0 0 0 0 0 0 0 0 0 0 0 0 127 0" result="hardAlpha"/>
      <feOffset dy="0.789687"/>
      <feGaussianBlur stdDeviation="1.05292"/>
      <feComposite in2="hardAlpha" operator="out"/>
      <feColorMatrix type="matrix" values="0 0 0 0 0.6825 0 0 0 0 0.782885 0 0 0 0 0.9 0 0 0 0.5 0"/>
      <feBlend mode="normal" in2="BackgroundImageFix" result="effect1_dropShadow_32_747"/>
      <feBlend mode="normal" in="SourceGraphic" in2="effect1_dropShadow_32_747" result="shape"/>
    </filter>
    <linearGradient id="paint0_linear_32_747" x1="67.5178" y1="51.1264" x2="78.7993" y2="74.3589" gradientUnits="userSpaceOnUse">
      <stop stop-color="#925FE2"/>
      <stop offset="1" stop-color="#E2D4F7"/>
    </linearGradient>
    <linearGradient id="paint1_linear_32_747" x1="67.5178" y1="51.1264" x2="67.5178" y2="61.713" gradientUnits="userSpaceOnUse">
      <stop stop-color="#925FE2"/>
      <stop offset="1" stop-color="#DFE7F5"/>
    </linearGradient>
    <linearGradient id="paint2_linear_32_747" x1="67.5178" y1="47.2999" x2="73.4377" y2="65.0473" gradientUnits="userSpaceOnUse">
      <stop stop-color="#925FE2"/>
      <stop offset="1" stop-color="#E2D4F7"/>
    </linearGradient>
    <linearGradient id="paint3_linear_32_747" x1="22.4822" y1="51.1264" x2="36.0926" y2="71.6763" gradientUnits="userSpaceOnUse">
      <stop stop-color="#925FE2"/>
      <stop offset="1" stop-color="#E2D4F7"/>
    </linearGradient>
    <linearGradient id="paint4_linear_32_747" x1="22.4822" y1="51.1264" x2="22.4822" y2="61.713" gradientUnits="userSpaceOnUse">
      <stop stop-color="#925FE2"/>
      <stop offset="1" stop-color="#DFE7F5"/>
    </linearGradient>
    <linearGradient id="paint5_linear_32_747" x1="22.4822" y1="47.2999" x2="30.1371" y2="64.1255" gradientUnits="userSpaceOnUse">
      <stop stop-color="#925FE2"/>
      <stop offset="1" stop-color="#E2D4F7"/>
    </linearGradient>
    <linearGradient id="paint6_linear_32_747" x1="67.5178" y1="39.6121" x2="77.574" y2="67.5988" gradientUnits="userSpaceOnUse">
      <stop stop-color="#925FE2"/>
      <stop offset="1" stop-color="#E2D4F7"/>
    </linearGradient>
    <linearGradient id="paint7_linear_32_747" x1="67.5178" y1="39.6121" x2="67.5178" y2="50.1987" gradientUnits="userSpaceOnUse">
      <stop stop-color="#925FE2"/>
      <stop offset="1" stop-color="#DFE7F5"/>
    </linearGradient>
    <linearGradient id="paint8_linear_32_747" x1="67.5178" y1="35.7856" x2="72.5679" y2="56.2459" gradientUnits="userSpaceOnUse">
      <stop stop-color="#925FE2"/>
      <stop offset="1" stop-color="#E2D4F7"/>
    </linearGradient>
    <linearGradient id="paint9_linear_32_747" x1="22.4822" y1="39.6121" x2="22.4822" y2="50.1987" gradientUnits="userSpaceOnUse">
      <stop stop-color="#925FE2"/>
      <stop offset="1" stop-color="#E2D4F7"/>
    </linearGradient>
    <linearGradient id="paint10_linear_32_747" x1="67.5004" y1="28.1326" x2="79.7154" y2="53.4568" gradientUnits="userSpaceOnUse">
      <stop stop-color="#925FE2"/>
      <stop offset="1" stop-color="#E2D4F7"/>
    </linearGradient>
    <linearGradient id="paint11_linear_32_747" x1="67.5004" y1="28.1326" x2="67.5004" y2="38.7192" gradientUnits="userSpaceOnUse">
      <stop stop-color="#925FE2"/>
      <stop offset="1" stop-color="#DFE7F5"/>
    </linearGradient>
    <linearGradient id="paint12_linear_32_747" x1="67.5004" y1="24.306" x2="73.9024" y2="43.6278" gradientUnits="userSpaceOnUse">
      <stop stop-color="#925FE2"/>
      <stop offset="1" stop-color="#E2D4F7"/>
    </linearGradient>
    <linearGradient id="paint13_linear_32_747" x1="67.5004" y1="16.6875" x2="76.0642" y2="40.9224" gradientUnits="userSpaceOnUse">
      <stop stop-color="#925FE2"/>
      <stop offset="1" stop-color="#E2D4F7"/>
    </linearGradient>
    <linearGradient id="paint14_linear_32_747" x1="67.5004" y1="16.6875" x2="67.5004" y2="27.2741" gradientUnits="userSpaceOnUse">
      <stop stop-color="#925FE2"/>
      <stop offset="1" stop-color="#DFE7F5"/>
    </linearGradient>
    <linearGradient id="paint15_linear_32_747" x1="67.5004" y1="12.861" x2="71.793" y2="30.5453" gradientUnits="userSpaceOnUse">
      <stop stop-color="#925FE2"/>
      <stop offset="1" stop-color="#E2D4F7"/>
    </linearGradient>
    <linearGradient id="paint16_linear_32_747" x1="61.9119" y1="6.11353" x2="66.3551" y2="36.1889" gradientUnits="userSpaceOnUse">
      <stop stop-color="#925FE2"/>
      <stop offset="1" stop-color="#E2D4F7"/>
    </linearGradient>
    <linearGradient id="paint17_linear_32_747" x1="61.9119" y1="6.11353" x2="61.9119" y2="16.7001" gradientUnits="userSpaceOnUse">
      <stop stop-color="#925FE2"/>
      <stop offset="1" stop-color="#DFE7F5"/>
    </linearGradient>
    <linearGradient id="paint18_linear_32_747" x1="61.9119" y1="2.28699" x2="64.0324" y2="23.1821" gradientUnits="userSpaceOnUse">
      <stop stop-color="#925FE2"/>
      <stop offset="1" stop-color="#E2D4F7"/>
    </linearGradient>
  </defs>
</svg>