<svg xmlns="http://www.w3.org/2000/svg" width="118" height="113" viewBox="0 0 118 113" fill="none">
  <g filter="url(#filter0_d_32_775)">
    <path d="M73.9221 105.752V98.4968C88.7824 102.048 97.5554 101.676 113.614 98.4935V105.741C113.614 106.081 113.372 106.377 113.038 106.449C97.6004 109.736 88.9678 109.787 74.4859 106.457C74.1579 106.381 73.9221 106.088 73.9221 105.752Z" fill="url(#paint0_linear_32_775)" stroke="url(#paint1_linear_32_775)" stroke-width="0.131615"/>
    <g filter="url(#filter1_d_32_775)">
      <ellipse cx="93.7682" cy="98.2229" rx="19.9119" ry="3.63609" fill="url(#paint2_linear_32_775)"/>
      <path d="M113.614 98.2229C113.614 98.4477 113.49 98.6764 113.232 98.9066C112.974 99.1367 112.59 99.3617 112.089 99.5779C111.088 100.01 109.636 100.401 107.836 100.729C104.238 101.386 99.264 101.793 93.7682 101.793C88.2724 101.793 83.2985 101.386 79.7001 100.729C77.9004 100.401 76.448 100.01 75.4471 99.5779C74.9464 99.3617 74.5624 99.1367 74.3046 98.9066C74.0466 98.6764 73.9221 98.4477 73.9221 98.2229C73.9221 97.9982 74.0466 97.7695 74.3046 97.5392C74.5624 97.3092 74.9464 97.0842 75.4471 96.868C76.448 96.4359 77.9004 96.0452 79.7001 95.7166C83.2985 95.0595 88.2724 94.6527 93.7682 94.6527C99.264 94.6527 104.238 95.0595 107.836 95.7166C109.636 96.0452 111.088 96.4359 112.089 96.868C112.59 97.0842 112.974 97.3092 113.232 97.5392C113.49 97.7695 113.614 97.9982 113.614 98.2229Z" stroke="white" stroke-opacity="0.2" stroke-width="0.131615"/>
    </g>
  </g>
  <g filter="url(#filter2_d_32_775)">
    <path d="M28.8865 105.752V98.4968C43.7469 102.048 52.5199 101.676 68.5787 98.4935V105.741C68.5787 106.081 68.3361 106.377 68.0023 106.449C52.5648 109.736 43.9323 109.787 29.4504 106.457C29.1224 106.381 28.8865 106.088 28.8865 105.752Z" fill="url(#paint3_linear_32_775)" stroke="url(#paint4_linear_32_775)" stroke-width="0.131615"/>
    <g filter="url(#filter3_d_32_775)">
      <ellipse cx="48.7326" cy="98.2229" rx="19.9119" ry="3.63609" fill="url(#paint5_linear_32_775)"/>
      <path d="M68.5787 98.2229C68.5787 98.4477 68.4542 98.6764 68.1962 98.9066C67.9384 99.1367 67.5544 99.3617 67.0537 99.5779C66.0528 100.01 64.6004 100.401 62.8007 100.729C59.2023 101.386 54.2284 101.793 48.7326 101.793C43.2368 101.793 38.263 101.386 34.6646 100.729C32.8649 100.401 31.4125 100.01 30.4116 99.5779C29.9109 99.3617 29.5269 99.1367 29.2691 98.9066C29.0111 98.6764 28.8865 98.4477 28.8865 98.2229C28.8865 97.9982 29.0111 97.7695 29.2691 97.5392C29.5269 97.3092 29.9109 97.0842 30.4116 96.868C31.4125 96.4359 32.8649 96.0452 34.6646 95.7166C38.263 95.0595 43.2368 94.6527 48.7326 94.6527C54.2284 94.6527 59.2023 95.0595 62.8007 95.7166C64.6004 96.0452 66.0528 96.4359 67.0537 96.868C67.5544 97.0842 67.9384 97.3092 68.1962 97.5392C68.4542 97.7695 68.5787 97.9982 68.5787 98.2229Z" stroke="white" stroke-opacity="0.2" stroke-width="0.131615"/>
    </g>
  </g>
  <g filter="url(#filter4_d_32_775)">
    <path d="M73.9221 94.2375V86.9825C88.7824 90.5333 97.5554 90.1616 113.614 86.9792V94.2265C113.614 94.5669 113.372 94.8632 113.038 94.9343C97.6004 98.2215 88.9678 98.2725 74.4859 94.9423C74.1579 94.8669 73.9221 94.5734 73.9221 94.2375Z" fill="url(#paint6_linear_32_775)" stroke="url(#paint7_linear_32_775)" stroke-width="0.131615"/>
    <g filter="url(#filter5_d_32_775)">
      <ellipse cx="93.7682" cy="86.7087" rx="19.9119" ry="3.63609" fill="url(#paint8_linear_32_775)"/>
      <path d="M113.614 86.7087C113.614 86.9334 113.49 87.1621 113.232 87.3924C112.974 87.6224 112.59 87.8474 112.089 88.0636C111.088 88.4957 109.636 88.8864 107.836 89.215C104.238 89.8721 99.264 90.2789 93.7682 90.2789C88.2724 90.2789 83.2985 89.8721 79.7001 89.215C77.9004 88.8864 76.448 88.4957 75.4471 88.0636C74.9464 87.8474 74.5624 87.6224 74.3046 87.3924C74.0466 87.1621 73.9221 86.9334 73.9221 86.7087C73.9221 86.4839 74.0466 86.2552 74.3046 86.025C74.5624 85.7949 74.9464 85.5699 75.4471 85.3538C76.448 84.9216 77.9004 84.5309 79.7001 84.2023C83.2985 83.5452 88.2724 83.1384 93.7682 83.1384C99.264 83.1384 104.238 83.5452 107.836 84.2023C109.636 84.5309 111.088 84.9216 112.089 85.3538C112.59 85.5699 112.974 85.7949 113.232 86.025C113.49 86.2552 113.614 86.4839 113.614 86.7087Z" stroke="white" stroke-opacity="0.2" stroke-width="0.131615"/>
    </g>
  </g>
  <g filter="url(#filter6_d_32_775)">
    <path d="M28.8865 94.2375V86.9825C43.7469 90.5333 52.5199 90.1616 68.5787 86.9792V94.2265C68.5787 94.5669 68.3361 94.8632 68.0023 94.9343C52.5648 98.2215 43.9323 98.2725 29.4504 94.9423C29.1224 94.8669 28.8865 94.5734 28.8865 94.2375Z" fill="url(#paint9_linear_32_775)" stroke="url(#paint10_linear_32_775)" stroke-width="0.131615"/>
    <g filter="url(#filter7_d_32_775)">
      <ellipse cx="48.7326" cy="86.7087" rx="19.9119" ry="3.63609" fill="url(#paint11_linear_32_775)"/>
      <path d="M68.5787 86.7087C68.5787 86.9334 68.4542 87.1621 68.1962 87.3924C67.9384 87.6224 67.5544 87.8474 67.0537 88.0636C66.0528 88.4957 64.6004 88.8864 62.8007 89.215C59.2023 89.8721 54.2284 90.2789 48.7326 90.2789C43.2368 90.2789 38.263 89.8721 34.6646 89.215C32.8649 88.8864 31.4125 88.4957 30.4116 88.0636C29.9109 87.8474 29.5269 87.6224 29.2691 87.3924C29.0111 87.1621 28.8865 86.9334 28.8865 86.7087C28.8865 86.4839 29.0111 86.2552 29.2691 86.025C29.5269 85.7949 29.9109 85.5699 30.4116 85.3538C31.4125 84.9216 32.8649 84.5309 34.6646 84.2023C38.263 83.5452 43.2368 83.1384 48.7326 83.1384C54.2284 83.1384 59.2023 83.5452 62.8007 84.2023C64.6004 84.5309 66.0528 84.9216 67.0537 85.3538C67.5544 85.5699 67.9384 85.7949 68.1962 86.025C68.4542 86.2552 68.5787 86.4839 68.5787 86.7087Z" stroke="white" stroke-opacity="0.2" stroke-width="0.131615"/>
    </g>
    <g filter="url(#filter8_f_32_775)">
      <ellipse cx="49.0184" cy="86.8558" rx="10.6918" ry="0.822448" fill="#925FE2"/>
    </g>
  </g>
  <g filter="url(#filter9_d_32_775)">
    <path d="M73.9049 82.758V75.5029C88.7652 79.0538 97.5382 78.682 113.597 75.4997V82.747C113.597 83.0874 113.354 83.3837 113.021 83.4547C97.5832 86.742 88.9506 86.7929 74.4687 83.4628C74.1407 83.3874 73.9049 83.0938 73.9049 82.758Z" fill="url(#paint12_linear_32_775)" stroke="url(#paint13_linear_32_775)" stroke-width="0.131615"/>
    <g filter="url(#filter10_d_32_775)">
      <ellipse cx="93.7509" cy="75.229" rx="19.9119" ry="3.63609" fill="url(#paint14_linear_32_775)"/>
      <path d="M113.597 75.229C113.597 75.4538 113.472 75.6825 113.214 75.9127C112.957 76.1428 112.573 76.3678 112.072 76.5839C111.071 77.0161 109.619 77.4067 107.819 77.7354C104.221 78.3925 99.2467 78.7993 93.7509 78.7993C88.2551 78.7993 83.2813 78.3925 79.6829 77.7354C77.8831 77.4067 76.4308 77.0161 75.4298 76.5839C74.9291 76.3678 74.5451 76.1428 74.2873 75.9127C74.0293 75.6825 73.9048 75.4538 73.9048 75.229C73.9048 75.0043 74.0293 74.7756 74.2873 74.5453C74.5451 74.3153 74.9291 74.0903 75.4298 73.8741C76.4308 73.442 77.8831 73.0513 79.6829 72.7227C83.2813 72.0656 88.2551 71.6587 93.7509 71.6587C99.2467 71.6587 104.221 72.0656 107.819 72.7227C109.619 73.0513 111.071 73.442 112.072 73.8741C112.573 74.0903 112.957 74.3153 113.214 74.5453C113.472 74.7756 113.597 75.0043 113.597 75.229Z" stroke="white" stroke-opacity="0.2" stroke-width="0.131615"/>
    </g>
  </g>
  <g filter="url(#filter11_d_32_775)">
    <path d="M73.9049 71.3129V64.0579C88.7652 67.6088 97.5382 67.237 113.597 64.0546V71.3019C113.597 71.6423 113.354 71.9386 113.021 72.0097C97.5832 75.2969 88.9506 75.3479 74.4687 72.0177C74.1407 71.9423 73.9049 71.6488 73.9049 71.3129Z" fill="url(#paint15_linear_32_775)" stroke="url(#paint16_linear_32_775)" stroke-width="0.131615"/>
    <g filter="url(#filter12_d_32_775)">
      <ellipse cx="93.7509" cy="63.784" rx="19.9119" ry="3.63609" fill="url(#paint17_linear_32_775)"/>
      <path d="M113.597 63.784C113.597 64.0088 113.472 64.2375 113.214 64.4677C112.957 64.6978 112.573 64.9228 112.072 65.1389C111.071 65.5711 109.619 65.9617 107.819 66.2904C104.221 66.9475 99.2467 67.3543 93.7509 67.3543C88.2551 67.3543 83.2813 66.9475 79.6829 66.2904C77.8831 65.9617 76.4308 65.5711 75.4298 65.1389C74.9291 64.9228 74.5451 64.6978 74.2873 64.4677C74.0293 64.2375 73.9048 64.0088 73.9048 63.784C73.9048 63.5593 74.0293 63.3306 74.2873 63.1003C74.5451 62.8703 74.9291 62.6453 75.4298 62.4291C76.4308 61.997 77.8831 61.6063 79.6829 61.2777C83.2813 60.6206 88.2551 60.2137 93.7509 60.2137C99.2467 60.2137 104.221 60.6206 107.819 61.2777C109.619 61.6063 111.071 61.997 112.072 62.4291C112.573 62.6453 112.957 62.8703 113.214 63.1003C113.472 63.3306 113.597 63.5593 113.597 63.784Z" stroke="white" stroke-opacity="0.2" stroke-width="0.131615"/>
    </g>
  </g>
  <g filter="url(#filter13_d_32_775)">
    <path d="M26.6866 32.8698C22.3491 33.9897 19.1911 33.9757 14.2712 33.156C13.9487 33.1023 13.6531 33.3499 13.6531 33.6769V73.9446C13.6531 74.2154 13.8586 74.4422 14.1283 74.4671C18.3426 74.8563 21.6319 74.8144 26.937 74.5379C28.3484 74.4644 29.7585 74.273 31.1337 73.9471C44.2724 70.8333 51.8131 66.8725 62.4275 57.4529C63.9522 56.0998 65.6904 54.9632 67.6635 54.4511C71.1797 53.5385 74.1216 53.6415 78.7364 55.0501C79.2506 55.207 79.778 54.8274 79.778 54.2898V14.0563C79.778 13.6403 79.4499 13.2951 79.0347 13.2693C66.4163 12.4851 61.0748 13.3762 51.7355 16.4327C42.8674 19.6575 38.4746 22.8587 30.8077 30.439C29.6549 31.5788 28.2563 32.4645 26.6866 32.8698Z" fill="url(#paint18_linear_32_775)"/>
    <path d="M26.6866 32.8698C22.3491 33.9897 19.1911 33.9757 14.2712 33.156C13.9487 33.1023 13.6531 33.3499 13.6531 33.6769V73.9446C13.6531 74.2154 13.8586 74.4422 14.1283 74.4671C18.3426 74.8563 21.6319 74.8144 26.937 74.5379C28.3484 74.4644 29.7585 74.273 31.1337 73.9471C44.2724 70.8333 51.8131 66.8725 62.4275 57.4529C63.9522 56.0998 65.6904 54.9632 67.6635 54.4511C71.1797 53.5385 74.1216 53.6415 78.7364 55.0501C79.2506 55.207 79.778 54.8274 79.778 54.2898V14.0563C79.778 13.6403 79.4499 13.2951 79.0347 13.2693C66.4163 12.4851 61.0748 13.3762 51.7355 16.4327C42.8674 19.6575 38.4746 22.8587 30.8077 30.439C29.6549 31.5788 28.2563 32.4645 26.6866 32.8698Z" stroke="url(#paint19_linear_32_775)" stroke-width="0.263229"/>
  </g>
  <g filter="url(#filter14_d_32_775)">
    <circle cx="72.1615" cy="45.6869" r="2.59652" fill="url(#paint20_linear_32_775)"/>
  </g>
  <g filter="url(#filter15_d_32_775)">
    <circle cx="20.9234" cy="41.5324" r="2.59652" fill="url(#paint21_linear_32_775)"/>
  </g>
  <g filter="url(#filter16_dd_32_775)">
    <circle cx="46.5424" cy="43.6096" r="11.5978" fill="url(#paint22_linear_32_775)" shape-rendering="crispEdges"/>
  </g>
  <g filter="url(#filter17_d_32_775)">
    <path d="M42.885 38.1027C43.3187 37.6071 43.7256 37.1813 44.2021 36.7184C44.7354 36.2003 45.5797 36.1999 46.1323 36.6974C46.5618 37.0838 46.6353 37.7382 46.2739 38.1889C46.0457 38.4735 45.8281 38.7198 45.5845 38.9588C45.1235 39.4109 44.8114 40.0059 44.8114 40.6516V40.7275C44.8114 41.3177 45.171 41.852 45.725 42.0555C45.8222 42.0912 45.9164 42.1252 46.0085 42.1577C47.3658 42.6366 48.8102 43.0322 49.8532 44.024C49.9876 44.1518 50.1149 44.2842 50.2385 44.4245C50.8234 45.0886 51.0431 45.9843 51.0431 46.8692C51.0431 47.9009 50.7435 48.9296 50.0556 49.6985C49.5944 50.214 49.1334 50.63 48.5664 51.0564C48.0207 51.4668 47.2521 51.3434 46.8197 50.815C46.3727 50.2686 46.4301 49.4683 46.9505 48.9913L47.5875 48.4074C47.9216 48.1011 48.1767 47.7031 48.2144 47.2515C48.2166 47.2259 48.2184 47.2004 48.22 47.1749C48.2709 46.3487 47.6432 45.667 46.8907 45.3219C45.8946 44.8651 45.0377 44.4326 44.0635 43.897C42.784 43.1937 41.9216 41.966 41.9648 40.5066C41.9902 39.6524 42.3222 38.7458 42.885 38.1027Z" fill="url(#paint23_linear_32_775)"/>
    <path d="M42.9345 38.146C43.3669 37.6519 43.7727 37.2274 44.2479 36.7656C44.7554 36.2726 45.5604 36.2711 46.0883 36.7463C46.4935 37.1109 46.5607 37.726 46.2225 38.1478C45.9956 38.4307 45.7797 38.6751 45.5384 38.9118C45.068 39.3731 44.7456 39.9841 44.7456 40.6516V40.7275C44.7456 41.3442 45.1214 41.9039 45.7023 42.1173C45.7997 42.1531 45.8942 42.1871 45.9866 42.2197C46.1691 42.2841 46.3526 42.3469 46.5361 42.4096C47.7258 42.8164 48.9155 43.2231 49.8079 44.0717C49.9408 44.1981 50.0668 44.3291 50.1892 44.468C50.7599 45.116 50.9773 45.9938 50.9773 46.8692C50.9773 47.889 50.6811 48.9006 50.0066 49.6546C49.5485 50.1666 49.0907 50.5798 48.5269 51.0038C48.0117 51.3913 47.2826 51.2767 46.8707 50.7733C46.4458 50.254 46.5003 49.4932 46.9949 49.0398L47.632 48.4559C47.9737 48.1426 48.2405 47.7303 48.28 47.257C48.2822 47.2309 48.2841 47.205 48.2857 47.179C48.339 46.3142 47.683 45.6128 46.9181 45.2621C45.9236 44.806 45.068 44.3741 44.0952 43.8394C42.8326 43.1453 41.9882 41.9383 42.0306 40.5086C42.0555 39.6684 42.3825 38.7768 42.9345 38.146Z" stroke="white" stroke-opacity="0.33" stroke-width="0.131615"/>
    <rect x="47.7542" y="34.0891" width="2.76963" height="6.23166" rx="1.38481" fill="url(#paint24_linear_32_775)"/>
    <rect x="47.82" y="34.1549" width="2.63801" height="6.10005" rx="1.31901" stroke="white" stroke-opacity="0.33" stroke-width="0.131615"/>
    <rect x="42.5611" y="47.2448" width="2.76963" height="6.23166" rx="1.38481" fill="url(#paint25_linear_32_775)"/>
    <rect x="42.6269" y="47.3106" width="2.63801" height="6.10005" rx="1.31901" stroke="white" stroke-opacity="0.33" stroke-width="0.131615"/>
  </g>
  <defs>
    <filter id="filter0_d_32_775" x="72.8033" y="93.7972" width="44.5619" height="19.1512" filterUnits="userSpaceOnUse" color-interpolation-filters="sRGB">
      <feFlood flood-opacity="0" result="BackgroundImageFix"/>
      <feColorMatrix in="SourceAlpha" type="matrix" values="0 0 0 0 0 0 0 0 0 0 0 0 0 0 0 0 0 0 127 0" result="hardAlpha"/>
      <feOffset dx="1.31615" dy="1.57937"/>
      <feGaussianBlur stdDeviation="1.18453"/>
      <feComposite in2="hardAlpha" operator="out"/>
      <feColorMatrix type="matrix" values="0 0 0 0 0.228976 0 0 0 0 0.34229 0 0 0 0 0.504167 0 0 0 0.15 0"/>
      <feBlend mode="normal" in2="BackgroundImageFix" result="effect1_dropShadow_32_775"/>
      <feBlend mode="normal" in="SourceGraphic" in2="effect1_dropShadow_32_775" result="shape"/>
    </filter>
    <filter id="filter1_d_32_775" x="71.7504" y="93.2707" width="44.0355" height="11.4838" filterUnits="userSpaceOnUse" color-interpolation-filters="sRGB">
      <feFlood flood-opacity="0" result="BackgroundImageFix"/>
      <feColorMatrix in="SourceAlpha" type="matrix" values="0 0 0 0 0 0 0 0 0 0 0 0 0 0 0 0 0 0 127 0" result="hardAlpha"/>
      <feOffset dy="0.789687"/>
      <feGaussianBlur stdDeviation="1.05292"/>
      <feComposite in2="hardAlpha" operator="out"/>
      <feColorMatrix type="matrix" values="0 0 0 0 0.6825 0 0 0 0 0.782885 0 0 0 0 0.9 0 0 0 0.5 0"/>
      <feBlend mode="normal" in2="BackgroundImageFix" result="effect1_dropShadow_32_775"/>
      <feBlend mode="normal" in="SourceGraphic" in2="effect1_dropShadow_32_775" result="shape"/>
    </filter>
    <filter id="filter2_d_32_775" x="27.7678" y="93.7972" width="44.5619" height="19.1512" filterUnits="userSpaceOnUse" color-interpolation-filters="sRGB">
      <feFlood flood-opacity="0" result="BackgroundImageFix"/>
      <feColorMatrix in="SourceAlpha" type="matrix" values="0 0 0 0 0 0 0 0 0 0 0 0 0 0 0 0 0 0 127 0" result="hardAlpha"/>
      <feOffset dx="1.31615" dy="1.57937"/>
      <feGaussianBlur stdDeviation="1.18453"/>
      <feComposite in2="hardAlpha" operator="out"/>
      <feColorMatrix type="matrix" values="0 0 0 0 0.228976 0 0 0 0 0.34229 0 0 0 0 0.504167 0 0 0 0.15 0"/>
      <feBlend mode="normal" in2="BackgroundImageFix" result="effect1_dropShadow_32_775"/>
      <feBlend mode="normal" in="SourceGraphic" in2="effect1_dropShadow_32_775" result="shape"/>
    </filter>
    <filter id="filter3_d_32_775" x="26.7149" y="93.2707" width="44.0355" height="11.4838" filterUnits="userSpaceOnUse" color-interpolation-filters="sRGB">
      <feFlood flood-opacity="0" result="BackgroundImageFix"/>
      <feColorMatrix in="SourceAlpha" type="matrix" values="0 0 0 0 0 0 0 0 0 0 0 0 0 0 0 0 0 0 127 0" result="hardAlpha"/>
      <feOffset dy="0.789687"/>
      <feGaussianBlur stdDeviation="1.05292"/>
      <feComposite in2="hardAlpha" operator="out"/>
      <feColorMatrix type="matrix" values="0 0 0 0 0.6825 0 0 0 0 0.782885 0 0 0 0 0.9 0 0 0 0.5 0"/>
      <feBlend mode="normal" in2="BackgroundImageFix" result="effect1_dropShadow_32_775"/>
      <feBlend mode="normal" in="SourceGraphic" in2="effect1_dropShadow_32_775" result="shape"/>
    </filter>
    <filter id="filter4_d_32_775" x="72.8033" y="82.2829" width="44.5619" height="19.1512" filterUnits="userSpaceOnUse" color-interpolation-filters="sRGB">
      <feFlood flood-opacity="0" result="BackgroundImageFix"/>
      <feColorMatrix in="SourceAlpha" type="matrix" values="0 0 0 0 0 0 0 0 0 0 0 0 0 0 0 0 0 0 127 0" result="hardAlpha"/>
      <feOffset dx="1.31615" dy="1.57937"/>
      <feGaussianBlur stdDeviation="1.18453"/>
      <feComposite in2="hardAlpha" operator="out"/>
      <feColorMatrix type="matrix" values="0 0 0 0 0.228976 0 0 0 0 0.34229 0 0 0 0 0.504167 0 0 0 0.15 0"/>
      <feBlend mode="normal" in2="BackgroundImageFix" result="effect1_dropShadow_32_775"/>
      <feBlend mode="normal" in="SourceGraphic" in2="effect1_dropShadow_32_775" result="shape"/>
    </filter>
    <filter id="filter5_d_32_775" x="71.7504" y="81.7564" width="44.0355" height="11.4838" filterUnits="userSpaceOnUse" color-interpolation-filters="sRGB">
      <feFlood flood-opacity="0" result="BackgroundImageFix"/>
      <feColorMatrix in="SourceAlpha" type="matrix" values="0 0 0 0 0 0 0 0 0 0 0 0 0 0 0 0 0 0 127 0" result="hardAlpha"/>
      <feOffset dy="0.789687"/>
      <feGaussianBlur stdDeviation="1.05292"/>
      <feComposite in2="hardAlpha" operator="out"/>
      <feColorMatrix type="matrix" values="0 0 0 0 0.6825 0 0 0 0 0.782885 0 0 0 0 0.9 0 0 0 0.5 0"/>
      <feBlend mode="normal" in2="BackgroundImageFix" result="effect1_dropShadow_32_775"/>
      <feBlend mode="normal" in="SourceGraphic" in2="effect1_dropShadow_32_775" result="shape"/>
    </filter>
    <filter id="filter6_d_32_775" x="27.7678" y="82.2829" width="44.5619" height="19.1512" filterUnits="userSpaceOnUse" color-interpolation-filters="sRGB">
      <feFlood flood-opacity="0" result="BackgroundImageFix"/>
      <feColorMatrix in="SourceAlpha" type="matrix" values="0 0 0 0 0 0 0 0 0 0 0 0 0 0 0 0 0 0 127 0" result="hardAlpha"/>
      <feOffset dx="1.31615" dy="1.57937"/>
      <feGaussianBlur stdDeviation="1.18453"/>
      <feComposite in2="hardAlpha" operator="out"/>
      <feColorMatrix type="matrix" values="0 0 0 0 0.228976 0 0 0 0 0.34229 0 0 0 0 0.504167 0 0 0 0.15 0"/>
      <feBlend mode="normal" in2="BackgroundImageFix" result="effect1_dropShadow_32_775"/>
      <feBlend mode="normal" in="SourceGraphic" in2="effect1_dropShadow_32_775" result="shape"/>
    </filter>
    <filter id="filter7_d_32_775" x="26.7149" y="81.7564" width="44.0355" height="11.4838" filterUnits="userSpaceOnUse" color-interpolation-filters="sRGB">
      <feFlood flood-opacity="0" result="BackgroundImageFix"/>
      <feColorMatrix in="SourceAlpha" type="matrix" values="0 0 0 0 0 0 0 0 0 0 0 0 0 0 0 0 0 0 127 0" result="hardAlpha"/>
      <feOffset dy="0.789687"/>
      <feGaussianBlur stdDeviation="1.05292"/>
      <feComposite in2="hardAlpha" operator="out"/>
      <feColorMatrix type="matrix" values="0 0 0 0 0.6825 0 0 0 0 0.782885 0 0 0 0 0.9 0 0 0 0.5 0"/>
      <feBlend mode="normal" in2="BackgroundImageFix" result="effect1_dropShadow_32_775"/>
      <feBlend mode="normal" in="SourceGraphic" in2="effect1_dropShadow_32_775" result="shape"/>
    </filter>
    <filter id="filter8_f_32_775" x="33.062" y="80.7688" width="31.9128" height="12.1741" filterUnits="userSpaceOnUse" color-interpolation-filters="sRGB">
      <feFlood flood-opacity="0" result="BackgroundImageFix"/>
      <feBlend mode="normal" in="SourceGraphic" in2="BackgroundImageFix" result="shape"/>
      <feGaussianBlur stdDeviation="2.63229" result="effect1_foregroundBlur_32_775"/>
    </filter>
    <filter id="filter9_d_32_775" x="72.7861" y="70.8033" width="44.562" height="19.1513" filterUnits="userSpaceOnUse" color-interpolation-filters="sRGB">
      <feFlood flood-opacity="0" result="BackgroundImageFix"/>
      <feColorMatrix in="SourceAlpha" type="matrix" values="0 0 0 0 0 0 0 0 0 0 0 0 0 0 0 0 0 0 127 0" result="hardAlpha"/>
      <feOffset dx="1.31615" dy="1.57937"/>
      <feGaussianBlur stdDeviation="1.18453"/>
      <feComposite in2="hardAlpha" operator="out"/>
      <feColorMatrix type="matrix" values="0 0 0 0 0.228976 0 0 0 0 0.34229 0 0 0 0 0.504167 0 0 0 0.15 0"/>
      <feBlend mode="normal" in2="BackgroundImageFix" result="effect1_dropShadow_32_775"/>
      <feBlend mode="normal" in="SourceGraphic" in2="effect1_dropShadow_32_775" result="shape"/>
    </filter>
    <filter id="filter10_d_32_775" x="71.7332" y="70.2768" width="44.0355" height="11.4838" filterUnits="userSpaceOnUse" color-interpolation-filters="sRGB">
      <feFlood flood-opacity="0" result="BackgroundImageFix"/>
      <feColorMatrix in="SourceAlpha" type="matrix" values="0 0 0 0 0 0 0 0 0 0 0 0 0 0 0 0 0 0 127 0" result="hardAlpha"/>
      <feOffset dy="0.789687"/>
      <feGaussianBlur stdDeviation="1.05292"/>
      <feComposite in2="hardAlpha" operator="out"/>
      <feColorMatrix type="matrix" values="0 0 0 0 0.6825 0 0 0 0 0.782885 0 0 0 0 0.9 0 0 0 0.5 0"/>
      <feBlend mode="normal" in2="BackgroundImageFix" result="effect1_dropShadow_32_775"/>
      <feBlend mode="normal" in="SourceGraphic" in2="effect1_dropShadow_32_775" result="shape"/>
    </filter>
    <filter id="filter11_d_32_775" x="72.7861" y="59.3583" width="44.562" height="19.1513" filterUnits="userSpaceOnUse" color-interpolation-filters="sRGB">
      <feFlood flood-opacity="0" result="BackgroundImageFix"/>
      <feColorMatrix in="SourceAlpha" type="matrix" values="0 0 0 0 0 0 0 0 0 0 0 0 0 0 0 0 0 0 127 0" result="hardAlpha"/>
      <feOffset dx="1.31615" dy="1.57937"/>
      <feGaussianBlur stdDeviation="1.18453"/>
      <feComposite in2="hardAlpha" operator="out"/>
      <feColorMatrix type="matrix" values="0 0 0 0 0.228976 0 0 0 0 0.34229 0 0 0 0 0.504167 0 0 0 0.15 0"/>
      <feBlend mode="normal" in2="BackgroundImageFix" result="effect1_dropShadow_32_775"/>
      <feBlend mode="normal" in="SourceGraphic" in2="effect1_dropShadow_32_775" result="shape"/>
    </filter>
    <filter id="filter12_d_32_775" x="71.7332" y="58.8318" width="44.0355" height="11.4838" filterUnits="userSpaceOnUse" color-interpolation-filters="sRGB">
      <feFlood flood-opacity="0" result="BackgroundImageFix"/>
      <feColorMatrix in="SourceAlpha" type="matrix" values="0 0 0 0 0 0 0 0 0 0 0 0 0 0 0 0 0 0 127 0" result="hardAlpha"/>
      <feOffset dy="0.789687"/>
      <feGaussianBlur stdDeviation="1.05292"/>
      <feComposite in2="hardAlpha" operator="out"/>
      <feColorMatrix type="matrix" values="0 0 0 0 0.6825 0 0 0 0 0.782885 0 0 0 0 0.9 0 0 0 0.5 0"/>
      <feBlend mode="normal" in2="BackgroundImageFix" result="effect1_dropShadow_32_775"/>
      <feBlend mode="normal" in="SourceGraphic" in2="effect1_dropShadow_32_775" result="shape"/>
    </filter>
    <filter id="filter13_d_32_775" x="0.623323" y="0.759843" width="97.9755" height="93.603" filterUnits="userSpaceOnUse" color-interpolation-filters="sRGB">
      <feFlood flood-opacity="0" result="BackgroundImageFix"/>
      <feColorMatrix in="SourceAlpha" type="matrix" values="0 0 0 0 0 0 0 0 0 0 0 0 0 0 0 0 0 0 127 0" result="hardAlpha"/>
      <feOffset dx="2.89552" dy="3.68521"/>
      <feGaussianBlur stdDeviation="7.89687"/>
      <feComposite in2="hardAlpha" operator="out"/>
      <feColorMatrix type="matrix" values="0 0 0 0 0.386111 0 0 0 0 0.465605 0 0 0 0 0.579167 0 0 0 0.25 0"/>
      <feBlend mode="normal" in2="BackgroundImageFix" result="effect1_dropShadow_32_775"/>
      <feBlend mode="normal" in="SourceGraphic" in2="effect1_dropShadow_32_775" result="shape"/>
    </filter>
    <filter id="filter14_d_32_775" x="68.512" y="42.5639" width="7.29889" height="7.29888" filterUnits="userSpaceOnUse" color-interpolation-filters="sRGB">
      <feFlood flood-opacity="0" result="BackgroundImageFix"/>
      <feColorMatrix in="SourceAlpha" type="matrix" values="0 0 0 0 0 0 0 0 0 0 0 0 0 0 0 0 0 0 127 0" result="hardAlpha"/>
      <feOffset dy="0.526458"/>
      <feGaussianBlur stdDeviation="0.526458"/>
      <feComposite in2="hardAlpha" operator="out"/>
      <feColorMatrix type="matrix" values="0 0 0 0 0 0 0 0 0 0 0 0 0 0 0 0 0 0 0.05 0"/>
      <feBlend mode="normal" in2="BackgroundImageFix" result="effect1_dropShadow_32_775"/>
      <feBlend mode="normal" in="SourceGraphic" in2="effect1_dropShadow_32_775" result="shape"/>
    </filter>
    <filter id="filter15_d_32_775" x="17.2739" y="38.4094" width="7.29889" height="7.29888" filterUnits="userSpaceOnUse" color-interpolation-filters="sRGB">
      <feFlood flood-opacity="0" result="BackgroundImageFix"/>
      <feColorMatrix in="SourceAlpha" type="matrix" values="0 0 0 0 0 0 0 0 0 0 0 0 0 0 0 0 0 0 127 0" result="hardAlpha"/>
      <feOffset dy="0.526458"/>
      <feGaussianBlur stdDeviation="0.526458"/>
      <feComposite in2="hardAlpha" operator="out"/>
      <feColorMatrix type="matrix" values="0 0 0 0 0 0 0 0 0 0 0 0 0 0 0 0 0 0 0.05 0"/>
      <feBlend mode="normal" in2="BackgroundImageFix" result="effect1_dropShadow_32_775"/>
      <feBlend mode="normal" in="SourceGraphic" in2="effect1_dropShadow_32_775" result="shape"/>
    </filter>
    <filter id="filter16_dd_32_775" x="29.68" y="28.3266" width="32.6719" height="31.6189" filterUnits="userSpaceOnUse" color-interpolation-filters="sRGB">
      <feFlood flood-opacity="0" result="BackgroundImageFix"/>
      <feColorMatrix in="SourceAlpha" type="matrix" values="0 0 0 0 0 0 0 0 0 0 0 0 0 0 0 0 0 0 127 0" result="hardAlpha"/>
      <feOffset dx="-2.63229" dy="-1.05292"/>
      <feGaussianBlur stdDeviation="1.31615"/>
      <feComposite in2="hardAlpha" operator="out"/>
      <feColorMatrix type="matrix" values="0 0 0 0 1 0 0 0 0 1 0 0 0 0 1 0 0 0 0.5 0"/>
      <feBlend mode="normal" in2="BackgroundImageFix" result="effect1_dropShadow_32_775"/>
      <feColorMatrix in="SourceAlpha" type="matrix" values="0 0 0 0 0 0 0 0 0 0 0 0 0 0 0 0 0 0 127 0" result="hardAlpha"/>
      <feOffset dx="0.526458" dy="1.05292"/>
      <feGaussianBlur stdDeviation="1.8426"/>
      <feComposite in2="hardAlpha" operator="out"/>
      <feColorMatrix type="matrix" values="0 0 0 0 0.348958 0 0 0 0 0.462623 0 0 0 0 0.625 0 0 0 0.25 0"/>
      <feBlend mode="normal" in2="effect1_dropShadow_32_775" result="effect2_dropShadow_32_775"/>
      <feBlend mode="normal" in="SourceGraphic" in2="effect2_dropShadow_32_775" result="shape"/>
    </filter>
    <filter id="filter17_d_32_775" x="40.3839" y="33.5626" width="12.2385" height="22.5461" filterUnits="userSpaceOnUse" color-interpolation-filters="sRGB">
      <feFlood flood-opacity="0" result="BackgroundImageFix"/>
      <feColorMatrix in="SourceAlpha" type="matrix" values="0 0 0 0 0 0 0 0 0 0 0 0 0 0 0 0 0 0 127 0" result="hardAlpha"/>
      <feOffset dy="1.05292"/>
      <feGaussianBlur stdDeviation="0.789687"/>
      <feComposite in2="hardAlpha" operator="out"/>
      <feColorMatrix type="matrix" values="0 0 0 0 0 0 0 0 0 0 0 0 0 0 0 0 0 0 0.05 0"/>
      <feBlend mode="normal" in2="BackgroundImageFix" result="effect1_dropShadow_32_775"/>
      <feBlend mode="normal" in="SourceGraphic" in2="effect1_dropShadow_32_775" result="shape"/>
    </filter>
    <linearGradient id="paint0_linear_32_775" x1="93.7682" y1="98.4134" x2="102.157" y2="124.52" gradientUnits="userSpaceOnUse">
      <stop stop-color="#925FE2"/>
      <stop offset="1" stop-color="#E2D4F7"/>
    </linearGradient>
    <linearGradient id="paint1_linear_32_775" x1="93.7682" y1="98.4133" x2="93.7682" y2="109" gradientUnits="userSpaceOnUse">
      <stop stop-color="#925FE2"/>
      <stop offset="1" stop-color="#DFE7F5"/>
    </linearGradient>
    <linearGradient id="paint2_linear_32_775" x1="93.7682" y1="94.5869" x2="97.9322" y2="113.452" gradientUnits="userSpaceOnUse">
      <stop stop-color="#925FE2"/>
      <stop offset="1" stop-color="#E2D4F7"/>
    </linearGradient>
    <linearGradient id="paint3_linear_32_775" x1="48.7326" y1="98.4133" x2="55.3244" y2="120.714" gradientUnits="userSpaceOnUse">
      <stop stop-color="#925FE2"/>
      <stop offset="1" stop-color="#E2D4F7"/>
    </linearGradient>
    <linearGradient id="paint4_linear_32_775" x1="48.7326" y1="98.4133" x2="48.7326" y2="109" gradientUnits="userSpaceOnUse">
      <stop stop-color="#925FE2"/>
      <stop offset="1" stop-color="#DFE7F5"/>
    </linearGradient>
    <linearGradient id="paint5_linear_32_775" x1="48.7326" y1="94.5869" x2="51.9809" y2="110.585" gradientUnits="userSpaceOnUse">
      <stop stop-color="#925FE2"/>
      <stop offset="1" stop-color="#E2D4F7"/>
    </linearGradient>
    <linearGradient id="paint6_linear_32_775" x1="93.7682" y1="86.8991" x2="108.287" y2="104.211" gradientUnits="userSpaceOnUse">
      <stop stop-color="#925FE2"/>
      <stop offset="1" stop-color="#E2D4F7"/>
    </linearGradient>
    <linearGradient id="paint7_linear_32_775" x1="93.7682" y1="86.8991" x2="93.7682" y2="97.4857" gradientUnits="userSpaceOnUse">
      <stop stop-color="#925FE2"/>
      <stop offset="1" stop-color="#DFE7F5"/>
    </linearGradient>
    <linearGradient id="paint8_linear_32_775" x1="93.7682" y1="83.0726" x2="102.53" y2="98.2814" gradientUnits="userSpaceOnUse">
      <stop stop-color="#925FE2"/>
      <stop offset="1" stop-color="#E2D4F7"/>
    </linearGradient>
    <linearGradient id="paint9_linear_32_775" x1="48.7326" y1="86.8991" x2="48.7326" y2="97.4857" gradientUnits="userSpaceOnUse">
      <stop stop-color="#925FE2"/>
      <stop offset="1" stop-color="#925FE2"/>
    </linearGradient>
    <linearGradient id="paint10_linear_32_775" x1="48.7326" y1="86.8991" x2="48.7326" y2="97.4857" gradientUnits="userSpaceOnUse">
      <stop stop-color="#925FE2"/>
      <stop offset="1" stop-color="#DFE7F5"/>
    </linearGradient>
    <linearGradient id="paint11_linear_32_775" x1="48.7326" y1="83.0726" x2="48.7326" y2="90.3448" gradientUnits="userSpaceOnUse">
      <stop stop-color="#925FE2"/>
      <stop offset="1" stop-color="#925FE2"/>
    </linearGradient>
    <linearGradient id="paint12_linear_32_775" x1="93.751" y1="75.4195" x2="112.867" y2="97.4191" gradientUnits="userSpaceOnUse">
      <stop stop-color="#925FE2"/>
      <stop offset="1" stop-color="#E2D4F7"/>
    </linearGradient>
    <linearGradient id="paint13_linear_32_775" x1="93.751" y1="75.4195" x2="93.751" y2="86.0061" gradientUnits="userSpaceOnUse">
      <stop stop-color="#925FE2"/>
      <stop offset="1" stop-color="#DFE7F5"/>
    </linearGradient>
    <linearGradient id="paint14_linear_32_775" x1="93.7509" y1="71.5929" x2="105.423" y2="91.148" gradientUnits="userSpaceOnUse">
      <stop stop-color="#925FE2"/>
      <stop offset="1" stop-color="#E2D4F7"/>
    </linearGradient>
    <linearGradient id="paint15_linear_32_775" x1="93.751" y1="63.9745" x2="109.973" y2="86.9424" gradientUnits="userSpaceOnUse">
      <stop stop-color="#925FE2"/>
      <stop offset="1" stop-color="#E2D4F7"/>
    </linearGradient>
    <linearGradient id="paint16_linear_32_775" x1="93.751" y1="63.9745" x2="93.751" y2="74.5611" gradientUnits="userSpaceOnUse">
      <stop stop-color="#925FE2"/>
      <stop offset="1" stop-color="#DFE7F5"/>
    </linearGradient>
    <linearGradient id="paint17_linear_32_775" x1="93.7509" y1="60.1479" x2="103.038" y2="79.2896" gradientUnits="userSpaceOnUse">
      <stop stop-color="#925FE2"/>
      <stop offset="1" stop-color="#E2D4F7"/>
    </linearGradient>
    <linearGradient id="paint18_linear_32_775" x1="13.6531" y1="33.7722" x2="112.667" y2="75" gradientUnits="userSpaceOnUse">
      <stop stop-color="#925FE2"/>
      <stop offset="1" stop-color="#E2D4F7"/>
    </linearGradient>
    <linearGradient id="paint19_linear_32_775" x1="14.6917" y1="34.9839" x2="79.778" y2="54.1982" gradientUnits="userSpaceOnUse">
      <stop stop-color="#925FE2"/>
      <stop offset="1" stop-color="#E8EFFD"/>
    </linearGradient>
    <linearGradient id="paint20_linear_32_775" x1="72.1615" y1="43.0903" x2="72.1615" y2="48.2834" gradientUnits="userSpaceOnUse">
      <stop offset="0.15625" stop-color="#925FE2"/>
      <stop offset="1" stop-color="#F1F1F1"/>
    </linearGradient>
    <linearGradient id="paint21_linear_32_775" x1="20.9234" y1="38.9359" x2="20.9234" y2="44.1289" gradientUnits="userSpaceOnUse">
      <stop offset="0.182292" stop-color="#925FE2"/>
      <stop offset="1" stop-color="#F1F1F1"/>
    </linearGradient>
    <linearGradient id="paint22_linear_32_775" x1="46.5424" y1="32.0118" x2="46.5424" y2="55.2075" gradientUnits="userSpaceOnUse">
      <stop stop-color="#E4EBF7" stop-opacity="0.5"/>
      <stop offset="1" stop-color="#D9E4F4"/>
    </linearGradient>
    <linearGradient id="paint23_linear_32_775" x1="46.5" y1="35.8201" x2="46.5" y2="51.7455" gradientUnits="userSpaceOnUse">
      <stop stop-color="#925FE2"/>
      <stop offset="1" stop-color="#925FE2"/>
    </linearGradient>
    <linearGradient id="paint24_linear_32_775" x1="49.139" y1="34.0891" x2="49.139" y2="40.3207" gradientUnits="userSpaceOnUse">
      <stop stop-color="#925FE2"/>
      <stop offset="1" stop-color="#925FE2"/>
    </linearGradient>
    <linearGradient id="paint25_linear_32_775" x1="43.9459" y1="47.2448" x2="43.9459" y2="53.4765" gradientUnits="userSpaceOnUse">
      <stop stop-color="#925FE2"/>
      <stop offset="1" stop-color="#925FE2"/>
    </linearGradient>
  </defs>
</svg>